<?xml version="1.0" standalone="no"?>
<!DOCTYPE svg PUBLIC "-//W3C//DTD SVG 20010904//EN"
 "http://www.w3.org/TR/2001/REC-SVG-20010904/DTD/svg10.dtd">
<svg version="1.0" xmlns="http://www.w3.org/2000/svg"
 width="512.000000pt" height="512.000000pt" viewBox="0 0 512.000000 512.000000"
 preserveAspectRatio="xMidYMid meet">
<metadata>
Created by potrace 1.14, written by Peter Selinger 2001-2017
</metadata>
<g transform="translate(0.000000,512.000000) scale(0.100000,-0.100000)"
fill="#000000" stroke="none">
<path d="M1749 5026 c-2 -2 -38 -6 -79 -9 -41 -4 -86 -9 -100 -12 -14 -3 -45
-8 -70 -11 -76 -10 -300 -71 -395 -107 -117 -45 -276 -119 -340 -159 -194
-122 -304 -205 -415 -312 -88 -85 -170 -175 -170 -186 0 -5 27 -31 61 -58 l60
-49 127 127 c137 137 250 225 408 320 257 153 581 257 859 276 44 3 85 7 90 9
15 4 8 157 -8 167 -13 9 -22 10 -28 4z"/>
<path d="M1969 5016 c0 -6 -3 -45 -5 -87 l-5 -76 53 -2 c29 0 65 -3 80 -6 33
-6 37 6 41 104 l2 65 -50 3 c-27 1 -65 5 -82 7 -20 2 -33 -1 -34 -8z"/>
<path d="M1777 4684 c-1 -1 -33 -4 -72 -8 -367 -32 -720 -176 -1009 -411 -91
-73 -151 -131 -225 -216 -87 -100 -91 -105 -150 -193 -163 -241 -273 -536
-308 -826 -15 -121 -7 -467 12 -523 2 -6 7 -29 10 -51 3 -21 7 -41 9 -45 2 -3
7 -24 10 -46 4 -21 22 -85 41 -141 214 -641 746 -1117 1400 -1253 141 -29 209
-36 380 -36 190 0 246 6 463 51 43 9 227 72 273 93 59 28 64 28 186 -5 l103
-28 -6 -42 -5 -43 48 -6 c26 -4 73 -10 103 -15 55 -8 388 -6 425 3 11 2 41 7
66 11 72 11 100 16 164 32 79 20 211 63 244 80 14 8 31 14 36 14 39 0 327 170
434 257 58 46 211 192 246 234 77 92 108 134 157 209 59 89 168 299 168 322 0
8 4 18 9 24 11 11 75 218 91 294 28 134 38 263 35 435 -5 282 -61 515 -185
770 -200 412 -546 742 -955 910 -49 20 -99 41 -110 46 -51 21 -258 72 -340 84
-133 18 -381 24 -470 12 -16 -3 -41 -5 -54 -6 -21 -1 -23 -4 -18 -45 l6 -44
-65 -11 c-35 -7 -106 -23 -158 -36 l-94 -24 -96 39 c-152 62 -345 110 -511
126 -65 6 -283 13 -288 8z"/>
<path d="M4896 843 c-1 -1 -168 -4 -371 -8 -204 -3 -469 -8 -590 -10 -121 -2
-386 -7 -590 -10 -203 -4 -467 -8 -585 -10 -118 -2 -375 -7 -570 -10 -195 -3
-456 -7 -580 -10 -124 -2 -394 -7 -600 -10 -818 -13 -788 -12 -841 -31 -64
-23 -115 -72 -146 -141 -23 -50 -25 -64 -21 -157 5 -116 23 -162 84 -216 44
-38 87 -58 141 -64 21 -3 214 -8 428 -11 215 -3 482 -8 595 -10 113 -2 378 -7
590 -10 609 -10 1159 -20 1725 -30 624 -11 1036 -18 1240 -19 l230 -1 0 380 0
379 -68 1 c-38 0 -69 -1 -71 -2z"/>
</g>
</svg>
